<svg enable-background="new 0 0 3000 3000" viewBox="0 0 3000 3000" xmlns="http://www.w3.org/2000/svg"><path d="m2539.1 772.6c-3.2 5.5-441.5-249.7-438.3-255.2 71.1-122.1 226.9-164 347.9-93.5 121.1 70.4 161.5 226.6 90.4 348.7z" stroke="#000" stroke-miterlimit="10"/><path d="m453.8 773.6c3.2 5.5 441.5-249.7 438.3-255.2-71.1-122.1-226.9-164-348-93.5s-161.5 226.5-90.3 348.7z" stroke="#000" stroke-miterlimit="10" stroke-width="40"/><ellipse cx="1498.2" cy="1830" fill="#fff" rx="808.3" ry="528"/><path d="m1360.6 2343.4s6.7-40.3 10.9-57.1 5.6 15.9 12.7 26.8 8.4-40.6 13.8-30.1c5.4 10.4 4 29.1 16.9 32.6 13 3.5 8.1-35.7 13.4-32.1s1.3 26 12.6 36.2c11.3 10.1 12.6-29.4 18.3-34.5 5.8-5.1 21.5 34.2 21.5 34.2 8.5 18.8 8.8-24.6 18.5-31.9s6.5 23.4 16.3 33.5 15.6-28.4 20.2-34.6 4.8 33.7 15.4 37.4 7-34.6 15.6-39.1 7.2 33.6 13.1 38.8 5.7-36.6 13.3-39.9 2.6 36.5 9.8 42.6 9.2-45.9 14.4-45.9 5.2 69.8 5.2 69.8l-88.2 7.1-113.7 1.1-60.1-7.7z"/><path d="m1644.8 1784.8c5.4 12.5 6.2 24.1 35.7 28 24.7 3.2 177.1 4.3 192.3 4.4 43.6.1 9.4 0 62 .8 9-13.4 17.8-27 17.1-49.9-65.5-19.1-268.7-44.2-307.1 16.7z"/><path d="m1346.9 1784.8c-5.4 12.5-6.2 24.1-35.7 28-24.7 3.2-177.1 4.3-192.3 4.4-43.6.1-9.4 0-62 .8-9-13.4-17.8-27-17.1-49.9 65.5-19.1 268.7-44.2 307.1 16.7z"/><path d="m1619.1 2060.1c8.2 30.8-30.8 43.8-39.8 47.9-72.8 32.9-219.4 8.6-216.3-47.1 88.6-.8 170.6 3.7 256.1-.8z"/><path d="m1499.5 433.9c-754.2 0-1365.5 459.4-1365.5 1026 0 343.7 240 622.5 570.3 834.2 353.5 226.6 506.1 317.9 802.8 317.9 277.1 0 526.7-138.6 742.7-294.7 335.2-242.2 615.2-498.9 615.2-857.3-.1-566.7-611.4-1026.1-1365.5-1026.1zm0 1936.6c-447.2 0-809.7-239.2-809.7-534.2s362.5-534.2 809.7-534.2 809.7 239.2 809.7 534.2c-.1 295-362.6 534.2-809.7 534.2z" stroke="#000" stroke-miterlimit="10" stroke-width="40"/></svg>